<svg width="24" height="24" viewBox="0 0 24 24" fill="none" xmlns="http://www.w3.org/2000/svg">
<path d="M21.4763 17.429L17.4279 14.7292C16.9142 14.3893 16.2255 14.5012 15.8457 14.9862L14.6664 16.5024C14.5149 16.7022 14.2394 16.7602 14.0201 16.6384L13.7958 16.5147C13.0522 16.1094 12.1269 15.6048 10.2627 13.7399C8.3985 11.875 7.89287 10.9491 7.48754 10.2068L7.36454 9.98251C7.24107 9.7633 7.29794 9.48664 7.49785 9.33388L9.01307 8.15497C9.49788 7.77511 9.60986 7.08664 9.27039 6.57273L6.57057 2.52432C6.22266 2.001 5.52466 1.8439 4.98606 2.16767L3.29317 3.18459C2.76125 3.49731 2.371 4.00376 2.20425 4.59782C1.59464 6.819 2.05325 10.6524 7.70022 16.3001C12.1923 20.7918 15.5364 21.9997 17.8349 21.9997C18.3639 22.002 18.8908 21.9331 19.4015 21.7951C19.9957 21.6285 20.5022 21.2382 20.8147 20.7061L21.8327 19.0143C22.1569 18.4756 21.9999 17.7771 21.4763 17.429ZM21.2583 18.6723L20.2427 20.3652C20.0183 20.7492 19.654 21.0316 19.2261 21.1531C17.1756 21.7161 13.5932 21.2498 8.17183 15.8285C2.75051 10.4071 2.28425 6.82502 2.84722 4.77418C2.96893 4.34577 3.25164 3.98099 3.63615 3.75624L5.32905 2.74064C5.56274 2.60002 5.86569 2.66818 6.01666 2.89528L7.48324 5.09712L8.71418 6.94333C8.86159 7.16625 8.81316 7.46502 8.60286 7.62997L7.08729 8.80888C6.62607 9.16155 6.49436 9.79967 6.77833 10.3061L6.89867 10.5248C7.32466 11.3061 7.85427 12.278 9.78782 14.2112C11.7214 16.1444 12.693 16.6741 13.4739 17.1L13.6929 17.2207C14.1993 17.5046 14.8375 17.3729 15.1901 16.9117L16.369 15.3961C16.534 15.186 16.8327 15.1376 17.0557 15.2848L21.1037 17.9846C21.331 18.1355 21.3991 18.4386 21.2583 18.6723Z" fill="#FF6C3A"/>
<path fill-rule="evenodd" clip-rule="evenodd" d="M17.428 14.7294L21.4765 17.4292C22 17.7773 22.157 18.4757 21.8328 19.0144L20.8149 20.7063C20.5023 21.2384 19.9958 21.6287 19.4016 21.7952C18.891 21.9333 18.364 22.0021 17.8351 21.9999C15.5365 21.9999 12.1924 20.7919 7.70036 16.3002C2.05338 10.6526 1.59478 6.81917 2.20439 4.59799C2.37114 4.00392 2.76138 3.49747 3.2933 3.18476L4.9862 2.16783C5.5248 1.84407 6.2228 2.00116 6.57071 2.52449L9.27053 6.5729C9.61 7.08681 9.49802 7.77528 9.0132 8.15514L7.49799 9.33405C7.29808 9.48681 7.24121 9.76347 7.36468 9.98268L7.48768 10.207C7.893 10.9493 8.39865 11.8752 10.2628 13.7401C12.1271 15.605 13.0523 16.1096 13.7959 16.5149L14.0203 16.6386C14.2395 16.7604 14.515 16.7024 14.6665 16.5026L15.8458 14.9863C16.2256 14.5013 16.9143 14.3895 17.428 14.7294ZM6.82054 2.3584C6.82056 2.35844 6.82051 2.35837 6.82054 2.3584L9.52085 6.40755C9.94647 7.05188 9.80606 7.91504 9.19823 8.39129L9.19743 8.39191L7.68015 9.57242C7.59906 9.63439 7.57601 9.74658 7.62607 9.83545L7.62775 9.83843L7.75073 10.0628L7.75606 10.0725C8.14847 10.7912 8.64121 11.6935 10.475 13.528C12.3093 15.363 13.2109 15.8544 13.9309 16.2468L13.9408 16.2522L14.1651 16.3758C14.2538 16.4251 14.3662 16.4021 14.4275 16.3213L14.4297 16.3184L15.6096 14.8014C16.0859 14.1932 16.9494 14.053 17.5936 14.4792L17.5945 14.4798L21.6426 17.1794C22.2997 17.6163 22.4968 18.4929 22.0899 19.1691C22.0899 19.1691 22.0899 19.1691 22.0899 19.1691L21.0735 20.8582C21.0733 20.8587 21.073 20.8591 21.0728 20.8596C20.7209 21.4579 20.151 21.8967 19.4826 22.0841L19.4799 22.0848C18.9435 22.2299 18.3899 22.3022 17.8342 22.2999C15.4246 22.2996 12.0089 21.0326 7.48824 16.5124C1.80328 10.8268 1.26504 6.88711 1.91509 4.51859L1.91555 4.51691C2.10311 3.84868 2.54191 3.27894 3.14 2.92688L4.83164 1.91071C4.83166 1.9107 4.83161 1.91073 4.83164 1.91071C5.50764 1.50441 6.38382 1.70161 6.82054 2.3584ZM21.0015 18.5176C21.0594 18.4214 21.0314 18.2968 20.938 18.2348L16.8905 15.5353C16.8903 15.5352 16.8906 15.5354 16.8905 15.5353C16.7979 15.4745 16.6739 15.4943 16.6054 15.5812C16.6053 15.5813 16.6055 15.5811 16.6054 15.5812L15.4286 17.0941C15.4283 17.0944 15.4281 17.0948 15.4278 17.0951C14.9845 17.6738 14.1834 17.8391 13.5472 17.483C13.5469 17.4829 13.5466 17.4827 13.5463 17.4825L13.3304 17.3636C13.3302 17.3634 13.3306 17.3637 13.3304 17.3636C12.5278 16.9258 11.5317 16.379 9.57585 14.4235C7.61998 12.468 7.07358 11.4722 6.63576 10.6692C6.63564 10.669 6.63587 10.6694 6.63576 10.6692L6.51679 10.453C6.51659 10.4526 6.51638 10.4523 6.51618 10.4519C6.1602 9.81576 6.32553 9.01478 6.90417 8.57152L8.41785 7.39408C8.41797 7.39399 8.41773 7.39418 8.41785 7.39408C8.50476 7.32561 8.52514 7.20171 8.46432 7.10933C8.46424 7.10921 8.4644 7.10945 8.46432 7.10933L5.76711 3.06175C5.70496 2.96825 5.58007 2.93996 5.48386 2.99786L3.78769 4.01542C3.47042 4.20087 3.23703 4.50171 3.13629 4.85508C2.61536 6.75503 2.99784 10.2302 8.3841 15.6165C13.7703 21.0026 17.2457 21.3853 19.1454 20.8644C19.4983 20.7638 19.7987 20.5308 19.9838 20.214L19.9856 20.211L21.0015 18.5176ZM2.84735 4.77434C2.28438 6.82519 2.75064 10.4073 8.17197 15.8286C13.5933 21.25 17.1757 21.7162 19.2263 21.1533C19.6542 21.0317 20.0185 20.7494 20.2429 20.3653L21.2585 18.6724C21.3993 18.4388 21.3311 18.1357 21.1039 17.9848L17.0558 15.285C16.8328 15.1377 16.5342 15.1861 16.3692 15.3963L15.1903 16.9119C14.8376 17.3731 14.1994 17.5048 13.693 17.2208L13.474 17.1002C12.6933 16.6743 11.7208 16.1439 9.78796 14.2114C7.85513 12.2789 7.32519 11.3069 6.89928 10.5258L6.77847 10.3063C6.4945 9.79984 6.62621 9.16171 7.08743 8.80904L8.603 7.63013C8.81329 7.46518 8.86173 7.16641 8.71432 6.9435L6.0168 2.89544C5.86583 2.66835 5.56288 2.60019 5.32918 2.7408L3.63629 3.7564C3.25178 3.98115 2.96906 4.34593 2.84735 4.77434Z" fill="#FF6C3A"/>
<path d="M13.3333 5.33408C16.4613 5.33755 18.9961 7.87243 18.9996 11.0004C18.9996 11.1845 19.1488 11.3337 19.3329 11.3337C19.517 11.3337 19.6662 11.1845 19.6662 11.0004C19.6623 7.50441 16.8293 4.67131 13.3333 4.66748C13.1492 4.66748 13 4.81669 13 5.00078C13 5.18487 13.1492 5.33408 13.3333 5.33408Z" fill="#FF6C3A"/>
<path fill-rule="evenodd" clip-rule="evenodd" d="M19.9664 11.0003V11.0006C19.9664 11.3504 19.6829 11.6339 19.3331 11.6339C18.9834 11.6339 18.7 11.3505 18.6998 11.0009C18.6965 8.03838 16.2957 5.63757 13.3332 5.63427C12.9835 5.63409 12.7002 5.35064 12.7002 5.00097C12.7002 4.6512 12.9837 4.36768 13.3335 4.36768H13.3338C16.9952 4.37168 19.9624 7.33885 19.9664 11.0003ZM13.3335 5.33427C16.4615 5.33775 18.9963 7.87262 18.9998 11.0006C18.9998 11.1847 19.149 11.3339 19.3331 11.3339C19.5172 11.3339 19.6664 11.1847 19.6664 11.0006C19.6625 7.5046 16.8295 4.6715 13.3335 4.66768C13.1494 4.66768 13.0002 4.81689 13.0002 5.00097C13.0002 5.18506 13.1494 5.33427 13.3335 5.33427Z" fill="#FF6C3A"/>
<path d="M13.3333 7.33457C15.3572 7.33695 16.9974 8.97708 16.9997 11.001C16.9997 11.1851 17.149 11.3343 17.333 11.3343C17.5171 11.3343 17.6663 11.1851 17.6663 11.001C17.6636 8.60905 15.7252 6.6707 13.3333 6.66797C13.1492 6.66797 13 6.81718 13 7.00127C13 7.18536 13.1492 7.33457 13.3333 7.33457Z" fill="#FF6C3A"/>
<path fill-rule="evenodd" clip-rule="evenodd" d="M17.9665 11.0004L17.9665 11.0007C17.9665 11.3505 17.683 11.634 17.3332 11.634C16.9836 11.634 16.7 11.3506 16.6999 11.0009C16.6999 11.0008 16.6999 11.0008 16.6999 11.0007H16.9999L16.6999 11.0011C16.6999 11.001 16.6999 11.001 16.6999 11.0009C16.6977 9.14245 15.1916 7.63646 13.3331 7.63427C13.3333 7.63427 13.3334 7.63427 13.3335 7.63427V7.33429L13.3331 7.63427C12.9835 7.63408 12.7002 7.35063 12.7002 7.00097C12.7002 6.6512 12.9837 6.36768 13.3335 6.36768H13.3338C15.8912 6.3706 17.9636 8.443 17.9665 11.0004Z" fill="#FF6C3A"/>
<path d="M13.3333 9.33359C14.2532 9.33468 14.9987 10.0802 14.9999 11.0002C14.9999 11.1842 15.1491 11.3335 15.3332 11.3335C15.5172 11.3335 15.6665 11.1842 15.6665 11.0002C15.665 9.7122 14.6213 8.66844 13.3333 8.66699C13.1492 8.66699 13 8.8162 13 9.00029C13 9.18438 13.1492 9.33359 13.3333 9.33359Z" fill="#FF6C3A"/>
<path fill-rule="evenodd" clip-rule="evenodd" d="M15.9667 11L15.9667 11.0004C15.9667 11.3502 15.6831 11.6337 15.3334 11.6337C14.9837 11.6337 14.7002 11.3503 14.7001 11.0005C14.7001 11.0005 14.7001 11.0004 14.7001 11.0004H15L14.7001 11.0007C14.7001 11.0007 14.7001 11.0006 14.7001 11.0005C14.699 10.246 14.0876 9.63468 13.3331 9.63378C13.3333 9.63378 13.3334 9.63378 13.3335 9.63378V9.3338L13.3331 9.63378C12.9835 9.63359 12.7002 9.35014 12.7002 9.00049C12.7002 8.65071 12.9837 8.36719 13.3335 8.36719H13.3338C14.7872 8.36882 15.965 9.54664 15.9667 11ZM15.0001 11.0004C14.9989 10.0804 14.2534 9.33488 13.3335 9.33378C13.1494 9.33378 13.0002 9.18458 13.0002 9.00049C13.0002 8.8164 13.1494 8.66719 13.3335 8.66719C14.6215 8.66863 15.6652 9.71239 15.6667 11.0004C15.6667 11.1844 15.5174 11.3337 15.3334 11.3337C15.1493 11.3337 15.0001 11.1844 15.0001 11.0004Z" fill="#FF6C3A"/>
</svg>
