<svg width="24" height="24" viewBox="0 0 24 24" fill="none" xmlns="http://www.w3.org/2000/svg">
<path d="M20.2422 4H3.75781C2.78977 4 2 4.82855 2 5.84615V18.1538C2 19.168 2.78625 20 3.75781 20H20.2422C21.2078 20 22 19.1742 22 18.1538V5.84615C22 4.832 21.2138 4 20.2422 4ZM19.9995 5.23077L12.0373 13.5931L4.00621 5.23077H19.9995ZM3.17188 17.899V6.09514L8.81559 11.9717L3.17188 17.899ZM4.00051 18.7692L9.64777 12.8382L11.6266 14.8985C11.8556 15.1371 12.2253 15.1363 12.4534 14.8967L14.3828 12.8703L19.9995 18.7692H4.00051ZM20.8281 17.899L15.2114 12L20.8281 6.10101V17.899Z" fill="#FF6C3A"/>
</svg>
