<svg width="24" height="24" viewBox="0 0 24 24" fill="none" xmlns="http://www.w3.org/2000/svg">
<path d="M11.5699 5.67129C9.97394 5.67129 8.68203 7.00425 8.68203 8.63372C8.68203 10.2632 9.97394 11.5961 11.5699 11.5961C13.1659 11.5961 14.4578 10.2632 14.4578 8.63372C14.4578 7.00425 13.1659 5.67129 11.5699 5.67129ZM11.5699 10.4926C10.5782 10.4926 9.76428 9.66239 9.76428 8.63372C9.76428 7.60504 10.5782 6.77484 11.5699 6.77484C12.5616 6.77484 13.3755 7.60504 13.3755 8.63372C13.3755 9.66239 12.5616 10.4926 11.5699 10.4926Z" fill="#FF6C3A" stroke="#FF6C3A" stroke-width="0.3"/>
<path d="M16.8044 3.25677C15.3877 1.80154 13.5041 1 11.5008 1C9.49703 1 7.61377 1.80154 6.19712 3.25677C3.57541 5.94947 3.24961 11.0159 5.49153 14.0854L11.5008 23L17.501 14.0979C19.7519 11.0159 19.4261 5.94947 16.8044 3.25677ZM16.8666 13.6282L11.5008 21.5882L6.12633 13.6157C4.09287 10.8306 4.38426 6.25522 6.75056 3.82488C8.01936 2.52152 9.70628 1.80355 11.5008 1.80355C13.2952 1.80355 14.9822 2.52152 16.2514 3.82488C18.6177 6.25522 18.909 10.8306 16.8666 13.6282Z" fill="#FF6C3A"/>
<path fill-rule="evenodd" clip-rule="evenodd" d="M5.49171 14.0856C3.24979 11.016 3.57559 5.94966 6.1973 3.25697C7.61395 1.80174 9.49721 1.0002 11.5009 1.0002C13.5043 1.0002 15.3879 1.80174 16.8046 3.25697C19.4263 5.94966 19.7521 11.016 17.5012 14.0981L11.5009 23.0002L5.49171 14.0856ZM17.7468 14.2704L11.501 23.5369L5.24607 14.2579C4.07853 12.6566 3.58883 10.5516 3.72127 8.51054C3.85383 6.46771 4.61186 4.45529 5.98235 3.04769C7.45459 1.53535 9.41499 0.700195 11.5009 0.700195C13.5865 0.700195 15.5473 1.53536 17.0195 3.04769C18.39 4.45531 19.1481 6.46778 19.2795 8.51228C19.4108 10.5551 18.9187 12.6631 17.7468 14.2704ZM16.6245 13.4515C17.5971 12.1193 18.0228 10.3487 17.913 8.6079C17.8032 6.86673 17.16 5.18814 16.0366 4.03436C14.823 2.78807 13.2132 2.10375 11.5009 2.10375C9.78869 2.10375 8.17892 2.78808 6.9657 4.03434C5.8423 5.18815 5.19899 6.86681 5.08811 8.60655C4.97725 10.346 5.40083 12.1133 6.3688 13.439L6.37544 13.4481L11.5009 21.0517L16.6245 13.4515ZM11.5009 21.5884L6.1265 13.6159C4.09305 10.8308 4.38444 6.25541 6.75074 3.82508C8.01954 2.52172 9.70646 1.80375 11.5009 1.80375C13.2954 1.80375 14.9823 2.52172 16.2515 3.82508C18.6178 6.25541 18.9092 10.8308 16.8668 13.6284L11.5009 21.5884Z" fill="#FF6C3A"/>
</svg>
